<?xml version="1.0" encoding="UTF-8"?>
<svg version="1.1" xmlns="http://www.w3.org/2000/svg" width="77" height="77">
<path d="M0 0 C1.83704312 -0.01653825 3.67402246 -0.04380029 5.51074219 -0.08203125 C8.16391264 -0.13695737 10.81557491 -0.15869864 13.46923828 -0.17333984 C14.69299164 -0.2073439 14.69299164 -0.2073439 15.94146729 -0.24203491 C20.1088476 -0.22668774 22.72005803 0.08879864 26.01904297 2.7578125 C31.39784535 8.34171196 29.81763237 16.472362 29.86621094 23.83398438 C29.88274919 25.6710275 29.91001123 27.50800684 29.94824219 29.34472656 C30.00316831 31.99789701 30.02490958 34.64955928 30.03955078 37.30322266 C30.06222015 38.11905823 30.08488953 38.9348938 30.10824585 39.77545166 C30.09289868 43.94283198 29.77741229 46.5540424 27.10839844 49.85302734 C21.52449897 55.23182973 13.39384894 53.65161674 6.03222656 53.70019531 C4.19518344 53.71673356 2.3582041 53.74399561 0.52148438 53.78222656 C-2.13168607 53.83715268 -4.78334835 53.85889395 -7.43701172 53.87353516 C-8.25284729 53.89620453 -9.06868286 53.9188739 -9.90924072 53.94223022 C-14.07662104 53.92688305 -16.68783146 53.61139667 -19.98681641 50.94238281 C-25.36561879 45.35848335 -23.78540581 37.22783332 -23.83398438 29.86621094 C-23.85052263 28.02916781 -23.87778467 26.19218847 -23.91601562 24.35546875 C-23.97094175 21.7022983 -23.99268301 19.05063603 -24.00732422 16.39697266 C-24.02999359 15.58113708 -24.05266296 14.76530151 -24.07601929 13.92474365 C-24.06067212 9.75736333 -23.74518573 7.14615291 -21.07617188 3.84716797 C-15.49227241 -1.53163442 -7.36162238 0.04857857 0 0 Z " fill="#3960B4" transform="translate(35.48388671875,11.64990234375)"/>
<path d="M0 0 C1.49789742 0.08966287 2.99943021 0.13013894 4.5 0.125 C5.62921875 0.12886719 5.62921875 0.12886719 6.78125 0.1328125 C9.01118939 0.08392533 9.01118939 0.08392533 11.109375 -0.62890625 C11.73328125 -0.75136719 12.3571875 -0.87382813 13 -1 C15.75 0.9375 15.75 0.9375 18 3 C17.03462169 5.54508827 16.09382387 6.92083611 14 8.6875 C9.07254094 10.84326334 3.91875065 11.91886594 -1.3203125 10.26953125 C-4.77671842 8.60509962 -7.3670768 6.80201001 -10 4 C-9 1 -9 1 -6.6875 -0.25 C-3.73682309 -1.07344472 -2.86453163 -0.75187337 0 0 Z " fill="#48ADC0" transform="translate(37,45)"/>
<path d="M0 0 C5.45957151 0.0235665 8.78243808 1.55394479 13.4375 4.3125 C13.4375 5.6325 13.4375 6.9525 13.4375 8.3125 C10.4375 10.3125 10.4375 10.3125 8.07421875 10 C7.20410156 9.773125 6.33398438 9.54625 5.4375 9.3125 C4.57769531 9.1475 3.71789062 8.9825 2.83203125 8.8125 C1.97996094 8.6475 1.12789062 8.4825 0.25 8.3125 C-0.60980469 8.1475 -1.46960937 7.9825 -2.35546875 7.8125 C-4.5625 7.3125 -4.5625 7.3125 -6.5625 6.3125 C-5.61103381 1.01147406 -5.4567246 0.15828667 0 0 Z " fill="#7BCADE" transform="translate(39.5625,17.6875)"/>
<path d="M0 0 C0.66 0.33 1.32 0.66 2 1 C2.625 3.5625 2.625 3.5625 3 6 C5.64 6 8.28 6 11 6 C11 6.33 11 6.66 11 7 C10.12988281 7.03867187 10.12988281 7.03867187 9.2421875 7.078125 C2.93103262 7.53636067 -1.25141622 8.93350773 -5.62109375 13.80859375 C-7.25554726 16.40612468 -7.48724281 18.20609073 -7.6875 21.25 C-7.75324219 22.14203125 -7.81898437 23.0340625 -7.88671875 23.953125 C-7.94279297 24.96632813 -7.94279297 24.96632813 -8 26 C-10 25 -10 25 -11 22 C-11.60642478 16.31352506 -11.55467769 11.41294759 -8.35546875 6.5390625 C-5.92613402 3.78068243 -3.0947938 1.96400376 0 0 Z " fill="#4789D5" transform="translate(32,19)"/>
<path d="M0 0 C1.3125 2.125 1.3125 2.125 2 4 C-4.29891304 9.13858696 -4.29891304 9.13858696 -9.625 9.0625 C-10.85089844 9.04896484 -10.85089844 9.04896484 -12.1015625 9.03515625 C-13.04128906 9.01775391 -13.04128906 9.01775391 -14 9 C-13.319375 8.1646875 -13.319375 8.1646875 -12.625 7.3125 C-10.89133497 5.06351319 -10.89133497 5.06351319 -10.0625 2.375 C-9 0 -9 0 -7.1875 -1.4375 C-4.12144884 -2.22591316 -2.70778353 -1.56766415 0 0 Z " fill="#67CACA" transform="translate(53,46)"/>
<path d="M0 0 C1.65 0.99 3.3 1.98 5 3 C3.63016497 6.16115776 3.0109362 6.9927092 0 9 C-1.32 9 -2.64 9 -4 9 C-3.35455571 5.51460083 -1.89865603 2.97180943 0 0 Z " fill="#7AD4CC" transform="translate(50,45)"/>
<path d="M0 0 C0.66 0.33 1.32 0.66 2 1 C1.24163557 2.65161581 0.46787924 4.29617138 -0.3125 5.9375 C-0.95638672 7.31228516 -0.95638672 7.31228516 -1.61328125 8.71484375 C-3 11 -3 11 -6 12 C-6.8125 9.875 -6.8125 9.875 -7 7 C-3.13432836 1.56716418 -3.13432836 1.56716418 0 0 Z " fill="#1C498F" transform="translate(32,27)"/>
<path d="M0 0 C0.99 0.99 1.98 1.98 3 3 C3.99 2.67 4.98 2.34 6 2 C6.66 3.65 7.32 5.3 8 7 C5.6875 8.125 5.6875 8.125 3 9 C2.01 8.34 1.02 7.68 0 7 C-0.1875 3.375 -0.1875 3.375 0 0 Z " fill="#2560A4" transform="translate(24,35)"/>
<path d="M0 0 C0.8353125 0.556875 0.8353125 0.556875 1.6875 1.125 C-3.9375 5.125 -3.9375 5.125 -7.3125 5.125 C-7.3125 3.805 -7.3125 2.485 -7.3125 1.125 C-2.88173077 -1.09038462 -2.88173077 -1.09038462 0 0 Z " fill="#3694B7" transform="translate(35.3125,44.875)"/>
<path d="M0 0 C-2.40436026 3.60654039 -3.94679607 3.85452932 -8 5 C-8.33 3.35 -8.66 1.7 -9 0 C-5.62182575 -0.84454356 -3.32534757 -1.10844919 0 0 Z " fill="#2E7BB0" transform="translate(34,43)"/>
<path d="M0 0 C0.99 0.33 1.98 0.66 3 1 C2.34 2.32 1.68 3.64 1 5 C0.01 5 -0.98 5 -2 5 C-1.125 1.125 -1.125 1.125 0 0 Z " fill="#88DBCC" transform="translate(52,47)"/>
<path d="M0 0 C0.66 0.33 1.32 0.66 2 1 C0.71937515 2.7074998 -0.61767557 4.37373596 -2 6 C-2.66 6 -3.32 6 -4 6 C-3.6875 4.125 -3.6875 4.125 -3 2 C-2.01 1.34 -1.02 0.68 0 0 Z " fill="#17367C" transform="translate(32,27)"/>
</svg>
